<svg width="27" height="27" viewBox="0 0 27 27" fill="none" xmlns="http://www.w3.org/2000/svg">
<path d="M17.1094 17.0312C17.1094 16.5625 16.9922 14.6875 14.5312 14.6875H9.78516V19.4922H14.5312C14.7656 19.4922 17.1094 19.5508 17.1094 17.0312ZM14.1797 12.7539C14.1797 12.7539 16.4062 12.8125 16.4062 10.6445C16.4062 9.70703 16.2305 8.53516 14.1797 8.53516H9.78516V12.7539H14.1797ZM26.25 5.01953C26.1914 2.61719 24.2578 0.683594 21.8555 0.625H4.33594C1.93359 0.683594 0 2.61719 0 5.01953V22.5391C0 24.9414 1.93359 26.875 4.33594 26.875H21.8555C24.2578 26.875 26.1914 24.9414 26.25 22.5391V5.01953ZM19.8047 17.3828C19.8047 20.2539 17.5195 21.0742 16.6992 21.3086C15.293 21.7773 14.5898 21.6602 7.08984 21.6602V6.36719H14.5312C19.2188 6.36719 19.1016 9.76562 19.1016 10.1758C19.1016 11.7578 18.2227 12.8125 16.9336 13.3984V13.457C19.3945 13.9844 19.8047 16.1523 19.8047 17.3828Z" fill="white"/>
</svg>


