<svg width="30" height="29" viewBox="0 0 30 29" fill="none" xmlns="http://www.w3.org/2000/svg">
<path d="M9.66797 23.0703C9.66797 22.9531 9.55078 22.8359 9.375 22.8359C9.19922 22.8359 9.08203 22.9531 9.08203 23.0703C9.08203 23.1875 9.19922 23.3047 9.375 23.2461C9.55078 23.2461 9.66797 23.1875 9.66797 23.0703ZM7.85156 22.7773C7.85156 22.8945 7.96875 23.0703 8.14453 23.0703C8.26172 23.1289 8.4375 23.0703 8.49609 22.9531C8.49609 22.8359 8.4375 22.7188 8.26172 22.6602C8.08594 22.6016 7.91016 22.6602 7.85156 22.7773ZM10.4883 22.7188C10.3125 22.7188 10.1953 22.8359 10.1953 23.0117C10.1953 23.1289 10.3711 23.1875 10.5469 23.1289C10.7227 23.0703 10.8398 23.0117 10.7812 22.8945C10.7812 22.7773 10.6055 22.6602 10.4883 22.7188ZM14.2969 0.21875C6.21094 0.21875 0 6.42969 0 14.5156C0 21.0195 4.04297 26.5859 9.90234 28.5781C10.6641 28.6953 10.8984 28.2266 10.8984 27.875C10.8984 27.4648 10.8984 25.4727 10.8984 24.2422C10.8984 24.2422 6.79688 25.1211 5.91797 22.4844C5.91797 22.4844 5.27344 20.7852 4.33594 20.375C4.33594 20.375 2.98828 19.4375 4.39453 19.4375C4.39453 19.4375 5.85938 19.5547 6.67969 20.9609C7.96875 23.2461 10.0781 22.6016 10.957 22.1914C11.0742 21.2539 11.4258 20.6094 11.8945 20.1992C8.61328 19.8477 5.27344 19.3789 5.27344 13.7539C5.27344 12.1133 5.74219 11.3516 6.67969 10.2969C6.50391 9.88672 6.03516 8.36328 6.85547 6.3125C8.02734 5.96094 10.8984 7.89453 10.8984 7.89453C12.0703 7.54297 13.3008 7.42578 14.5312 7.42578C15.8203 7.42578 17.0508 7.54297 18.2227 7.89453C18.2227 7.89453 21.0352 5.90234 22.2656 6.3125C23.0859 8.36328 22.5586 9.88672 22.4414 10.2969C23.3789 11.3516 23.9648 12.1133 23.9648 13.7539C23.9648 19.3789 20.5078 19.8477 17.2266 20.1992C17.7539 20.668 18.2227 21.5469 18.2227 22.9531C18.2227 24.8867 18.1641 27.3477 18.1641 27.8164C18.1641 28.2266 18.457 28.6953 19.2188 28.5195C25.0781 26.5859 29.0625 21.0195 29.0625 14.5156C29.0625 6.42969 22.4414 0.21875 14.2969 0.21875ZM5.68359 20.4336C5.56641 20.4922 5.625 20.668 5.68359 20.7852C5.80078 20.8438 5.91797 20.9023 6.03516 20.8438C6.09375 20.7852 6.09375 20.6094 5.97656 20.4922C5.85938 20.4336 5.74219 20.375 5.68359 20.4336ZM5.03906 19.9648C4.98047 20.082 5.03906 20.1406 5.15625 20.1992C5.27344 20.2578 5.39062 20.2578 5.44922 20.1406C5.44922 20.082 5.39062 20.0234 5.27344 19.9648C5.15625 19.9062 5.09766 19.9062 5.03906 19.9648ZM6.91406 22.0742C6.85547 22.1328 6.85547 22.3086 7.03125 22.4258C7.14844 22.543 7.32422 22.6016 7.38281 22.4844C7.44141 22.4258 7.44141 22.25 7.32422 22.1328C7.20703 22.0156 7.03125 21.957 6.91406 22.0742ZM6.26953 21.1953C6.15234 21.2539 6.15234 21.4297 6.26953 21.5469C6.38672 21.6641 6.50391 21.7227 6.62109 21.6641C6.67969 21.6055 6.67969 21.4297 6.62109 21.3125C6.50391 21.1953 6.38672 21.1367 6.26953 21.1953Z" fill="white"/>
</svg>
