<svg width="34" height="37" viewBox="0 0 34 37" fill="none" xmlns="http://www.w3.org/2000/svg">
<path d="M14.75 14C14.1172 14 13.625 14.5625 13.625 15.125C13.625 15.7578 14.1172 16.25 14.75 16.25C15.3125 16.25 15.875 15.7578 15.875 15.125C15.875 14.5625 15.3125 14 14.75 14ZM31.7656 6.40625L18.2656 0.78125C17.8438 0.640625 17.4219 0.570312 17 0.5C16.5078 0.570312 16.0859 0.640625 15.6641 0.78125L2.16406 6.40625C0.96875 6.89844 0.0546875 8.16406 0.0546875 9.5H0.125C0.125 23.4922 8.14062 33.125 15.6641 36.2891C16.0859 36.4297 16.5078 36.5 16.9297 36.5C17.4219 36.5 17.8438 36.4297 18.2656 36.2891C24.3125 33.7578 33.875 25.1094 33.875 9.5C33.875 8.16406 32.9609 6.89844 31.7656 6.40625ZM26 18.5H25.0859C23.1172 18.5 22.1328 20.9609 23.5391 22.3672L24.1016 23C24.3125 23.2109 24.4531 23.4922 24.4531 23.7734C24.4531 24.4062 23.9609 24.8984 23.3281 24.8984C23.0469 24.8984 22.7656 24.7578 22.5547 24.5469L21.9219 23.9844C20.5156 22.5781 18.125 23.5625 18.125 25.5312V26.375C18.125 27.0078 17.5625 27.5 17 27.5C16.3672 27.5 15.875 27.0078 15.875 26.375V25.5312C15.875 23.5625 13.4141 22.5781 12.0078 23.9844L11.375 24.5469C11.1641 24.7578 10.8828 24.8984 10.6016 24.8984C9.96875 24.8984 9.47656 24.4062 9.47656 23.7734C9.47656 23.4922 9.61719 23.2109 9.82812 23L10.3906 22.3672C11.7969 20.9609 10.8125 18.5 8.84375 18.5H8C7.36719 18.5 6.875 18.0078 6.875 17.375C6.875 16.8125 7.36719 16.25 8 16.25H8.84375C10.8125 16.25 11.7969 13.8594 10.3906 12.4531L9.82812 11.8203C9.61719 11.6094 9.47656 11.3281 9.47656 11.0469C9.47656 10.4141 9.96875 9.92188 10.6016 9.92188C10.8828 9.92188 11.1641 10.0625 11.375 10.2734L12.0078 10.8359C13.4141 12.2422 15.875 11.2578 15.875 9.28906V8.375C15.875 7.8125 16.3672 7.25 17 7.25C17.5625 7.25 18.125 7.8125 18.125 8.375V9.28906C18.125 11.2578 20.5156 12.2422 21.9219 10.8359L22.5547 10.2734C22.7656 10.0625 23.0469 9.92188 23.3281 9.92188C23.9609 9.92188 24.4531 10.4141 24.4531 11.0469C24.4531 11.3281 24.3125 11.6094 24.1016 11.8203L23.5391 12.4531C22.1328 13.8594 23.1172 16.25 25.0859 16.25H26C26.5625 16.25 27.125 16.8125 27.125 17.375C27.125 18.0078 26.5625 18.5 26 18.5ZM19.25 18.5C18.6172 18.5 18.125 19.0625 18.125 19.625C18.125 20.2578 18.6172 20.75 19.25 20.75C19.8125 20.75 20.375 20.2578 20.375 19.625C20.375 19.0625 19.8125 18.5 19.25 18.5Z" fill="white"/>
</svg>
