<svg width="30" height="27" viewBox="0 0 30 27" fill="none" xmlns="http://www.w3.org/2000/svg">
<path d="M24.4922 9.17969C24.1406 9.0625 23.8477 8.94531 23.5547 8.88672C23.5547 8.65234 23.6133 8.41797 23.6719 8.18359C24.375 4.72656 23.9062 1.91406 22.3242 0.976562C20.8008 0.0976562 18.2812 1.03516 15.7031 3.26172C15.4688 3.4375 15.2344 3.67188 15 3.90625C14.8242 3.73047 14.6484 3.61328 14.5312 3.4375C11.8359 1.09375 9.14062 0.0976562 7.55859 1.03516C6.03516 1.91406 5.56641 4.55078 6.21094 7.89062C6.26953 8.18359 6.32812 8.53516 6.44531 8.82812C6.03516 8.94531 5.68359 9.0625 5.33203 9.17969C2.22656 10.293 0 11.9922 0 13.75C0 15.5664 2.34375 17.4414 5.625 18.5547C5.85938 18.6133 6.15234 18.7305 6.38672 18.7891C6.32812 19.1406 6.26953 19.4922 6.15234 19.8438C5.56641 23.0664 6.03516 25.6445 7.55859 26.5234C9.14062 27.4609 11.8359 26.5234 14.4141 24.2383C14.5898 24.0625 14.8242 23.8867 15 23.7109C15.293 23.9453 15.5273 24.1797 15.8203 24.4141C18.3398 26.582 20.8008 27.4609 22.3242 26.582C23.9062 25.6445 24.4336 22.8906 23.7891 19.4922C23.7305 19.2578 23.6719 18.9648 23.6133 18.7305C23.7891 18.6719 23.9648 18.6133 24.1406 18.5547C27.5391 17.4414 30 15.625 30 13.75C30 11.9922 27.6562 10.2344 24.4922 9.17969ZM16.5234 4.19922C18.75 2.26562 20.7422 1.5625 21.6797 2.08984C22.6758 2.61719 23.0859 4.96094 22.4414 7.94922C22.3828 8.18359 22.3828 8.35938 22.3242 8.53516C20.9766 8.24219 19.6875 8.06641 18.3398 7.94922C17.5781 6.83594 16.7578 5.78125 15.8789 4.78516C16.1133 4.60938 16.2891 4.375 16.5234 4.19922ZM9.78516 16.7969C10.0781 17.3242 10.3711 17.793 10.7227 18.3203C9.78516 18.2031 8.84766 18.0859 7.96875 17.8516C8.26172 17.0312 8.55469 16.1523 8.90625 15.2734C9.19922 15.8008 9.49219 16.2695 9.78516 16.7969ZM7.96875 9.76562C8.84766 9.53125 9.72656 9.41406 10.6641 9.29688C10.3711 9.76562 10.0781 10.293 9.78516 10.7617C9.49219 11.2891 9.19922 11.7578 8.90625 12.2852C8.55469 11.4062 8.26172 10.5859 7.96875 9.76562ZM9.60938 13.8086C9.96094 12.9883 10.4297 12.168 10.8398 11.4062C11.3086 10.6445 11.7773 9.88281 12.3047 9.12109C13.1836 9.0625 14.0625 9.00391 15 9.00391C15.8789 9.00391 16.8164 9.0625 17.6367 9.12109C18.1641 9.88281 18.6328 10.6445 19.1016 11.4062C19.5117 12.168 19.9805 12.9297 20.332 13.75C19.9805 14.5703 19.5703 15.3906 19.1016 16.1523C18.6328 16.9141 18.1641 17.6758 17.6953 18.4375C16.8164 18.4961 15.8789 18.5547 15 18.5547C14.0625 18.5547 13.1836 18.4961 12.3047 18.4375C11.7773 17.6758 11.3086 16.9141 10.8398 16.1523C10.4297 15.3906 10.0195 14.5703 9.60938 13.8086ZM20.1562 16.7969C20.5078 16.2695 20.7422 15.7422 21.0352 15.2148C21.3867 16.0938 21.7383 16.9141 22.0312 17.793C21.0938 18.0273 20.2148 18.2031 19.2773 18.2617C19.5703 17.793 19.8633 17.2656 20.1562 16.7969ZM21.0352 12.2852C20.7422 11.7578 20.4492 11.2891 20.1562 10.7617C19.8633 10.293 19.5703 9.76562 19.2773 9.29688C20.2148 9.41406 21.1523 9.58984 21.9727 9.76562C21.6797 10.6445 21.3867 11.4648 21.0352 12.2852ZM15 5.72266C15.5859 6.36719 16.1719 7.07031 16.6992 7.83203C15.5859 7.77344 14.4141 7.77344 13.2422 7.83203C13.8281 7.07031 14.4141 6.36719 15 5.72266ZM8.20312 2.08984C9.19922 1.5625 11.3672 2.38281 13.6523 4.375C13.8281 4.55078 13.9453 4.66797 14.1211 4.78516C13.1836 5.78125 12.3633 6.83594 11.6016 7.94922C10.2539 8.06641 8.96484 8.24219 7.67578 8.53516C7.55859 8.24219 7.5 7.94922 7.44141 7.59766C6.91406 4.78516 7.26562 2.67578 8.20312 2.08984ZM6.73828 17.5586C6.50391 17.5 6.26953 17.4414 6.03516 17.3242C4.80469 16.9141 3.33984 16.3281 2.34375 15.5078C1.75781 15.0977 1.34766 14.4531 1.23047 13.75C1.23047 12.6953 3.10547 11.2891 5.74219 10.3516C6.09375 10.2344 6.44531 10.1758 6.79688 10.0586C7.14844 11.3477 7.67578 12.5781 8.20312 13.8086C7.61719 14.9805 7.14844 16.2695 6.73828 17.5586ZM13.5938 23.3008C12.5977 24.1797 11.4844 24.8828 10.2539 25.3516C9.60938 25.7031 8.90625 25.7031 8.20312 25.4688C7.26562 24.8828 6.91406 22.832 7.44141 20.0781C7.5 19.7266 7.55859 19.375 7.61719 19.082C8.96484 19.375 10.2539 19.5508 11.6016 19.668C12.3633 20.7227 13.2422 21.7773 14.1211 22.7734C13.9453 22.9492 13.7695 23.125 13.5938 23.3008ZM15 21.8945C14.4141 21.25 13.8281 20.5469 13.2422 19.7266C13.8281 19.7852 14.4141 19.7852 15 19.7852C15.5859 19.7852 16.1719 19.7852 16.7578 19.7266C16.2305 20.4883 15.6445 21.1914 15 21.8945ZM22.6758 23.6523C22.6172 24.3555 22.2656 25 21.7383 25.4688C20.8008 25.9961 18.8086 25.293 16.6406 23.4766C16.4062 23.2422 16.1719 23.0078 15.8789 22.7734C16.8164 21.7773 17.6367 20.7812 18.3984 19.668C19.7461 19.5508 21.0352 19.3164 22.3828 19.0234C22.4414 19.2578 22.5 19.4922 22.5586 19.7266C22.793 21.0156 22.8516 22.3633 22.6758 23.6523ZM23.7305 17.3242C23.5547 17.3828 23.4375 17.4414 23.2617 17.5C22.8516 16.2109 22.3242 14.9805 21.7383 13.75C22.3242 12.5781 22.793 11.3477 23.2031 10.0586C23.4961 10.1758 23.7891 10.2344 24.082 10.3516C26.7773 11.2891 28.7109 12.6953 28.7109 13.75C28.7109 14.8633 26.6602 16.3867 23.7305 17.3242ZM15 16.4453C16.4648 16.4453 17.6367 15.2734 17.6367 13.75C17.6367 12.2852 16.4648 11.1133 15 11.1133C13.4766 11.1133 12.3047 12.2852 12.3047 13.75C12.3047 15.2734 13.4766 16.4453 15 16.4453Z" fill="white"/>
</svg>
