<svg width="39" height="29" viewBox="0 0 39 29" fill="none" xmlns="http://www.w3.org/2000/svg">
<path d="M18.6367 21.957C18.6367 22.0156 18.6367 22.0156 18.6367 21.957V21.957ZM33.2266 16.8594C32.0547 16.8594 30.8828 17.1523 29.8281 17.6797C29.5352 16.9766 29.125 16.3906 29.0664 15.9219C29.0078 15.3945 28.9492 15.043 29.0078 14.457C29.125 13.8125 29.4766 12.875 29.4766 12.8164C29.4766 12.7578 29.418 12.4648 28.6562 12.4648C27.8945 12.4648 27.25 12.582 27.1328 12.8164C27.0156 13.168 26.8984 13.5195 26.8398 13.9297C26.7227 14.5742 25.3164 17.0352 24.5547 18.3242C24.3203 17.7969 24.0859 17.3867 24.0273 17.0352C23.9688 16.5078 23.9102 16.1562 23.9688 15.5703C24.0273 14.9258 24.4375 14.0469 24.4375 13.9297C24.3789 13.8711 24.3203 13.5781 23.5586 13.5781C22.7969 13.5781 22.1523 13.6953 22.0938 13.9297C22.0352 14.1055 21.918 14.5742 21.8008 15.043C21.625 15.4531 19.8086 19.5547 19.3398 20.6094C19.0469 21.1367 18.8711 21.6055 18.6953 21.8984C18.6953 21.957 18.6953 21.957 18.6367 21.957C18.6953 21.957 18.6953 21.8984 18.6953 21.957C18.5781 22.1914 18.4609 22.3086 18.4609 22.3086C18.4023 22.543 18.2852 22.7188 18.2266 22.7188C18.168 22.7188 18.1094 22.1914 18.2266 21.5469C18.5195 20.082 19.1641 17.9141 19.1641 17.8555C19.1641 17.7969 19.2812 17.3867 18.7539 17.2109C18.168 17.0352 17.9922 17.3281 17.9336 17.3281L17.875 17.4453C17.875 17.4453 18.4609 14.9844 16.7617 14.9844C15.6484 14.9844 14.1836 16.1562 13.4219 17.2109C12.9531 17.4453 11.957 18.0312 10.9023 18.6172C10.4922 18.793 10.082 19.0273 9.67188 19.2617L9.61328 19.2031C7.50391 16.918 3.63672 15.3359 3.8125 12.3477C3.87109 11.2344 4.22266 8.36328 11.2539 4.90625C16.9961 2.03516 21.5664 2.79688 22.3867 4.55469C23.5 7.07422 19.9258 11.7031 13.9492 12.3477C11.6641 12.582 10.4922 11.7031 10.1992 11.4102C9.84766 11.0586 9.84766 11.0586 9.73047 11.1172C9.49609 11.1758 9.61328 11.5273 9.73047 11.7031C9.90625 12.1719 10.6094 12.9922 11.8398 13.4023C12.9531 13.7539 15.6484 13.9297 18.8711 12.6992C22.4453 11.293 25.2578 7.42578 24.4375 4.14453C23.6172 0.863281 18.168 -0.25 12.9531 1.625C9.84766 2.67969 6.50781 4.4375 4.10547 6.66406C1.29297 9.35938 0.824219 11.6445 1 12.6406C1.70312 16.0977 6.44922 18.3242 8.32422 20.0234C8.26562 20.082 8.14844 20.082 8.08984 20.1406C7.09375 20.6094 3.51953 22.543 2.58203 24.5352C1.58594 26.8203 2.75781 28.4609 3.51953 28.6367C5.98047 29.3398 8.5 28.1094 9.84766 26.1172C11.1953 24.0664 11.0195 21.4883 10.375 20.2578C10.375 20.2578 10.375 20.2578 10.375 20.1992C10.6094 20.082 10.9023 19.9062 11.1367 19.7891C11.6055 19.4961 12.0742 19.2617 12.4844 19.0273C12.25 19.6133 12.0742 20.375 12.0156 21.4883C11.8984 22.7773 12.4258 24.4766 13.1289 25.1211C13.4219 25.4141 13.832 25.4141 14.0078 25.4141C14.8281 25.4141 15.1797 24.7695 15.5898 23.9492C16.1172 22.9531 16.5273 21.8398 16.5273 21.8398C16.5273 21.8398 16 24.8867 17.5234 24.8867C18.0508 24.8867 18.5781 24.1836 18.8711 23.832C18.8711 23.832 18.8711 23.832 18.8711 23.7734C18.9297 23.6562 18.9883 23.5977 18.9883 23.5977C19.2227 23.2461 19.6914 22.3672 20.3945 20.9023C21.3906 19.0273 22.2695 16.7422 22.2695 16.7422C22.3867 17.2109 22.5039 17.7383 22.6211 18.207C22.7969 18.793 23.1484 19.3789 23.4414 19.9648C23.207 20.3164 23.0898 20.4922 23.0898 20.4922C22.9141 20.7266 22.6797 20.9609 22.5039 21.1953C21.7422 22.1328 20.8633 23.1289 20.7461 23.4219C20.5703 23.7734 20.6289 24.0078 20.9219 24.2422C21.0977 24.3594 21.4492 24.418 21.8008 24.3594C22.5039 24.3008 22.9727 24.1836 23.207 24.0664C23.6172 23.8906 24.0273 23.7148 24.3789 23.4219C25.1406 22.8945 25.5508 22.1328 25.4922 21.0781C25.4922 20.5508 25.3164 19.9648 25.082 19.4375C25.1406 19.3789 25.1992 19.2617 25.3164 19.1445C26.4297 17.4453 27.3672 15.5703 27.3672 15.5703C27.4258 16.0977 27.543 16.625 27.7188 17.0938C27.8359 17.5625 28.1289 18.0898 28.3633 18.6172C27.3086 19.4961 26.6055 20.5508 26.3711 21.1953C25.9609 22.4258 26.3125 23.0117 26.8984 23.1289C27.1914 23.1875 27.6016 23.0703 27.9531 22.9531C28.3633 22.7773 28.832 22.543 29.1836 22.3086C29.9453 21.7227 30.6484 20.9609 30.5898 19.9648C30.5898 19.4961 30.4141 19.0273 30.2383 18.6172C31.1758 18.207 32.4062 17.9727 33.9297 18.1484C37.1523 18.5586 37.7969 20.6094 37.6797 21.4297C37.5625 22.3086 36.8594 22.7773 36.625 22.8945C36.3906 23.0703 36.332 23.0703 36.3906 23.1875C36.3906 23.3633 36.5078 23.3633 36.6836 23.3047C36.9766 23.2461 38.3828 22.6016 38.4414 21.0195C38.5586 19.0273 36.625 16.8594 33.2266 16.8594ZM8.08984 25.3555C7.03516 26.5273 5.51172 26.9961 4.86719 26.5859C4.16406 26.1758 4.45703 24.4766 5.80469 23.1875C6.56641 22.4258 7.62109 21.7227 8.32422 21.3125C8.5 21.1953 8.67578 21.0781 8.96875 20.9023C9.02734 20.9023 9.02734 20.8438 9.02734 20.8438C9.08594 20.8438 9.14453 20.7852 9.20312 20.7852C9.73047 22.543 9.26172 24.125 8.08984 25.3555ZM16 20.0234C15.5898 20.9023 14.8281 23.2461 14.3594 23.1289C13.9492 23.0703 13.6562 21.2539 14.2422 19.4961C14.5352 18.6172 15.1797 17.5625 15.5312 17.1523C16.1172 16.5078 16.7617 16.2734 16.9375 16.5664C17.1133 16.8594 16.2344 19.4375 16 20.0234ZM22.5039 23.1289C22.3281 23.1875 22.1523 23.2461 22.0938 23.1875C22.0352 23.1875 22.1523 23.0703 22.1523 23.0703C22.1523 23.0703 22.9727 22.1914 23.3242 21.7812C23.5 21.5469 23.7344 21.3125 23.9688 20.9609C23.9688 21.0195 23.9688 21.0195 23.9688 21.0781C23.9688 22.1328 22.9141 22.8359 22.5039 23.1289ZM27.4844 21.957C27.3672 21.8984 27.4258 21.6055 27.7773 20.7852C27.9531 20.4336 28.3047 19.8477 28.8906 19.3203C28.9492 19.4961 29.0078 19.7305 29.0078 19.9648C29.0078 21.2539 28.0703 21.7812 27.4844 21.957Z" fill="white"/>
</svg>
